<mxfile host="app.diagrams.net" agent="Mozilla/5.0 (Windows NT 10.0; Win64; x64) AppleWebKit/537.36 (KHTML, like Gecko) Chrome/132.0.0.0 Safari/537.36 OPR/117.0.0.0" version="26.2.8">
  <diagram name="Página-1" id="Mg0Hc0WnxE5y_oBauFg5">
    <mxGraphModel dx="980" dy="1702" grid="1" gridSize="10" guides="1" tooltips="1" connect="1" arrows="1" fold="1" page="1" pageScale="1" pageWidth="827" pageHeight="1169" math="0" shadow="0">
      <root>
        <mxCell id="0" />
        <mxCell id="1" parent="0" />
        <mxCell id="sA4y40qbsDlOomALAGvJ-1" value="" style="edgeStyle=orthogonalEdgeStyle;rounded=0;orthogonalLoop=1;jettySize=auto;html=1;" edge="1" parent="1" source="sA4y40qbsDlOomALAGvJ-2" target="sA4y40qbsDlOomALAGvJ-4">
          <mxGeometry relative="1" as="geometry" />
        </mxCell>
        <mxCell id="sA4y40qbsDlOomALAGvJ-2" value="Início" style="rounded=1;whiteSpace=wrap;html=1;fontSize=12;glass=0;strokeWidth=1;shadow=0;" vertex="1" parent="1">
          <mxGeometry x="230" y="-1159" width="60" height="40" as="geometry" />
        </mxCell>
        <mxCell id="sA4y40qbsDlOomALAGvJ-3" value="" style="edgeStyle=orthogonalEdgeStyle;rounded=0;orthogonalLoop=1;jettySize=auto;html=1;" edge="1" parent="1" source="sA4y40qbsDlOomALAGvJ-4" target="sA4y40qbsDlOomALAGvJ-5">
          <mxGeometry relative="1" as="geometry" />
        </mxCell>
        <mxCell id="sA4y40qbsDlOomALAGvJ-4" value="&lt;div&gt;&lt;br&gt;&lt;/div&gt;&lt;div&gt;&lt;br&gt;&lt;/div&gt;Ler n1" style="shape=manualInput;whiteSpace=wrap;html=1;" vertex="1" parent="1">
          <mxGeometry x="215" y="-1029" width="90" height="60" as="geometry" />
        </mxCell>
        <mxCell id="sA4y40qbsDlOomALAGvJ-7" value="" style="edgeStyle=orthogonalEdgeStyle;rounded=0;orthogonalLoop=1;jettySize=auto;html=1;" edge="1" parent="1" source="sA4y40qbsDlOomALAGvJ-5" target="sA4y40qbsDlOomALAGvJ-6">
          <mxGeometry relative="1" as="geometry" />
        </mxCell>
        <mxCell id="sA4y40qbsDlOomALAGvJ-5" value="&lt;div&gt;&lt;br&gt;&lt;/div&gt;&lt;div&gt;&lt;br&gt;&lt;/div&gt;Ler n2" style="shape=manualInput;whiteSpace=wrap;html=1;" vertex="1" parent="1">
          <mxGeometry x="215" y="-889" width="90" height="60" as="geometry" />
        </mxCell>
        <mxCell id="sA4y40qbsDlOomALAGvJ-9" value="" style="edgeStyle=orthogonalEdgeStyle;rounded=0;orthogonalLoop=1;jettySize=auto;html=1;" edge="1" parent="1" source="sA4y40qbsDlOomALAGvJ-6">
          <mxGeometry relative="1" as="geometry">
            <mxPoint x="260" y="-609" as="targetPoint" />
          </mxGeometry>
        </mxCell>
        <mxCell id="sA4y40qbsDlOomALAGvJ-6" value="&lt;div&gt;&lt;br&gt;&lt;/div&gt;&lt;div&gt;&lt;br&gt;&lt;/div&gt;Ler operação" style="shape=manualInput;whiteSpace=wrap;html=1;" vertex="1" parent="1">
          <mxGeometry x="215" y="-749" width="90" height="60" as="geometry" />
        </mxCell>
        <mxCell id="sA4y40qbsDlOomALAGvJ-10" value="" style="edgeStyle=orthogonalEdgeStyle;rounded=0;orthogonalLoop=1;jettySize=auto;html=1;" edge="1" parent="1" source="sA4y40qbsDlOomALAGvJ-14">
          <mxGeometry relative="1" as="geometry">
            <mxPoint x="390" y="-569" as="targetPoint" />
          </mxGeometry>
        </mxCell>
        <mxCell id="sA4y40qbsDlOomALAGvJ-11" value="Verdadeiro" style="edgeLabel;html=1;align=center;verticalAlign=middle;resizable=0;points=[];" vertex="1" connectable="0" parent="sA4y40qbsDlOomALAGvJ-10">
          <mxGeometry x="-0.08" y="-1" relative="1" as="geometry">
            <mxPoint as="offset" />
          </mxGeometry>
        </mxCell>
        <mxCell id="sA4y40qbsDlOomALAGvJ-12" value="" style="edgeStyle=orthogonalEdgeStyle;rounded=0;orthogonalLoop=1;jettySize=auto;html=1;" edge="1" parent="1" source="sA4y40qbsDlOomALAGvJ-14">
          <mxGeometry relative="1" as="geometry">
            <mxPoint x="260" y="-409" as="targetPoint" />
          </mxGeometry>
        </mxCell>
        <mxCell id="sA4y40qbsDlOomALAGvJ-13" value="Falso" style="edgeLabel;html=1;align=center;verticalAlign=middle;resizable=0;points=[];" vertex="1" connectable="0" parent="sA4y40qbsDlOomALAGvJ-12">
          <mxGeometry x="-0.02" y="-2" relative="1" as="geometry">
            <mxPoint as="offset" />
          </mxGeometry>
        </mxCell>
        <mxCell id="sA4y40qbsDlOomALAGvJ-14" value="operação = +" style="rhombus;whiteSpace=wrap;html=1;" vertex="1" parent="1">
          <mxGeometry x="210" y="-619" width="100" height="100" as="geometry" />
        </mxCell>
        <mxCell id="sA4y40qbsDlOomALAGvJ-46" style="edgeStyle=orthogonalEdgeStyle;rounded=0;orthogonalLoop=1;jettySize=auto;html=1;exitX=1;exitY=0.5;exitDx=0;exitDy=0;entryX=0.5;entryY=0;entryDx=0;entryDy=0;" edge="1" parent="1" source="sA4y40qbsDlOomALAGvJ-15" target="sA4y40qbsDlOomALAGvJ-45">
          <mxGeometry relative="1" as="geometry" />
        </mxCell>
        <mxCell id="sA4y40qbsDlOomALAGvJ-15" value="resultado = n1 + n2" style="rounded=0;whiteSpace=wrap;html=1;" vertex="1" parent="1">
          <mxGeometry x="390" y="-599" width="120" height="60" as="geometry" />
        </mxCell>
        <mxCell id="sA4y40qbsDlOomALAGvJ-17" value="" style="edgeStyle=orthogonalEdgeStyle;rounded=0;orthogonalLoop=1;jettySize=auto;html=1;" edge="1" parent="1" source="sA4y40qbsDlOomALAGvJ-21">
          <mxGeometry relative="1" as="geometry">
            <mxPoint x="390" y="-359" as="targetPoint" />
          </mxGeometry>
        </mxCell>
        <mxCell id="sA4y40qbsDlOomALAGvJ-18" value="Verdadeiro" style="edgeLabel;html=1;align=center;verticalAlign=middle;resizable=0;points=[];" vertex="1" connectable="0" parent="sA4y40qbsDlOomALAGvJ-17">
          <mxGeometry x="-0.08" y="-1" relative="1" as="geometry">
            <mxPoint as="offset" />
          </mxGeometry>
        </mxCell>
        <mxCell id="sA4y40qbsDlOomALAGvJ-19" value="" style="edgeStyle=orthogonalEdgeStyle;rounded=0;orthogonalLoop=1;jettySize=auto;html=1;" edge="1" parent="1">
          <mxGeometry relative="1" as="geometry">
            <mxPoint x="260" y="-259" as="targetPoint" />
            <mxPoint x="259.5" y="-309" as="sourcePoint" />
          </mxGeometry>
        </mxCell>
        <mxCell id="sA4y40qbsDlOomALAGvJ-20" value="Falso" style="edgeLabel;html=1;align=center;verticalAlign=middle;resizable=0;points=[];" vertex="1" connectable="0" parent="sA4y40qbsDlOomALAGvJ-19">
          <mxGeometry x="-0.02" y="-2" relative="1" as="geometry">
            <mxPoint as="offset" />
          </mxGeometry>
        </mxCell>
        <mxCell id="sA4y40qbsDlOomALAGvJ-21" value="operação = -" style="rhombus;whiteSpace=wrap;html=1;" vertex="1" parent="1">
          <mxGeometry x="210" y="-409" width="100" height="100" as="geometry" />
        </mxCell>
        <mxCell id="sA4y40qbsDlOomALAGvJ-47" style="edgeStyle=orthogonalEdgeStyle;rounded=0;orthogonalLoop=1;jettySize=auto;html=1;entryX=0;entryY=0.5;entryDx=0;entryDy=0;" edge="1" parent="1" source="sA4y40qbsDlOomALAGvJ-22" target="sA4y40qbsDlOomALAGvJ-45">
          <mxGeometry relative="1" as="geometry" />
        </mxCell>
        <mxCell id="sA4y40qbsDlOomALAGvJ-22" value="resultado = n1 - n2" style="rounded=0;whiteSpace=wrap;html=1;" vertex="1" parent="1">
          <mxGeometry x="390" y="-389" width="120" height="60" as="geometry" />
        </mxCell>
        <mxCell id="sA4y40qbsDlOomALAGvJ-24" value="" style="edgeStyle=orthogonalEdgeStyle;rounded=0;orthogonalLoop=1;jettySize=auto;html=1;" edge="1" parent="1" source="sA4y40qbsDlOomALAGvJ-28">
          <mxGeometry relative="1" as="geometry">
            <mxPoint x="390" y="-209" as="targetPoint" />
          </mxGeometry>
        </mxCell>
        <mxCell id="sA4y40qbsDlOomALAGvJ-25" value="Verdadeiro" style="edgeLabel;html=1;align=center;verticalAlign=middle;resizable=0;points=[];" vertex="1" connectable="0" parent="sA4y40qbsDlOomALAGvJ-24">
          <mxGeometry x="-0.08" y="-1" relative="1" as="geometry">
            <mxPoint as="offset" />
          </mxGeometry>
        </mxCell>
        <mxCell id="sA4y40qbsDlOomALAGvJ-28" value="operação = /" style="rhombus;whiteSpace=wrap;html=1;" vertex="1" parent="1">
          <mxGeometry x="210" y="-259" width="100" height="100" as="geometry" />
        </mxCell>
        <mxCell id="sA4y40qbsDlOomALAGvJ-48" style="edgeStyle=orthogonalEdgeStyle;rounded=0;orthogonalLoop=1;jettySize=auto;html=1;entryX=0;entryY=1;entryDx=0;entryDy=0;" edge="1" parent="1" source="sA4y40qbsDlOomALAGvJ-29" target="sA4y40qbsDlOomALAGvJ-45">
          <mxGeometry relative="1" as="geometry" />
        </mxCell>
        <mxCell id="sA4y40qbsDlOomALAGvJ-29" value="resultado = n1 / n2" style="rounded=0;whiteSpace=wrap;html=1;" vertex="1" parent="1">
          <mxGeometry x="390" y="-239" width="120" height="60" as="geometry" />
        </mxCell>
        <mxCell id="sA4y40qbsDlOomALAGvJ-34" value="" style="edgeStyle=orthogonalEdgeStyle;rounded=0;orthogonalLoop=1;jettySize=auto;html=1;" edge="1" parent="1">
          <mxGeometry relative="1" as="geometry">
            <mxPoint x="259.99" y="-109" as="targetPoint" />
            <mxPoint x="259.49" y="-159" as="sourcePoint" />
          </mxGeometry>
        </mxCell>
        <mxCell id="sA4y40qbsDlOomALAGvJ-35" value="Falso" style="edgeLabel;html=1;align=center;verticalAlign=middle;resizable=0;points=[];" vertex="1" connectable="0" parent="sA4y40qbsDlOomALAGvJ-34">
          <mxGeometry x="-0.02" y="-2" relative="1" as="geometry">
            <mxPoint as="offset" />
          </mxGeometry>
        </mxCell>
        <mxCell id="sA4y40qbsDlOomALAGvJ-42" value="" style="edgeStyle=orthogonalEdgeStyle;rounded=0;orthogonalLoop=1;jettySize=auto;html=1;" edge="1" parent="1" source="sA4y40qbsDlOomALAGvJ-37" target="sA4y40qbsDlOomALAGvJ-41">
          <mxGeometry relative="1" as="geometry" />
        </mxCell>
        <mxCell id="sA4y40qbsDlOomALAGvJ-43" value="Falso" style="edgeLabel;html=1;align=center;verticalAlign=middle;resizable=0;points=[];" vertex="1" connectable="0" parent="sA4y40qbsDlOomALAGvJ-42">
          <mxGeometry x="-0.2588" y="-3" relative="1" as="geometry">
            <mxPoint x="1" as="offset" />
          </mxGeometry>
        </mxCell>
        <mxCell id="sA4y40qbsDlOomALAGvJ-37" value="operação = *" style="rhombus;whiteSpace=wrap;html=1;" vertex="1" parent="1">
          <mxGeometry x="210" y="-109" width="100" height="100" as="geometry" />
        </mxCell>
        <mxCell id="sA4y40qbsDlOomALAGvJ-38" value="" style="edgeStyle=orthogonalEdgeStyle;rounded=0;orthogonalLoop=1;jettySize=auto;html=1;" edge="1" parent="1">
          <mxGeometry relative="1" as="geometry">
            <mxPoint x="390" y="-59" as="targetPoint" />
            <mxPoint x="310" y="-59" as="sourcePoint" />
          </mxGeometry>
        </mxCell>
        <mxCell id="sA4y40qbsDlOomALAGvJ-39" value="Verdadeiro" style="edgeLabel;html=1;align=center;verticalAlign=middle;resizable=0;points=[];" vertex="1" connectable="0" parent="sA4y40qbsDlOomALAGvJ-38">
          <mxGeometry x="-0.08" y="-1" relative="1" as="geometry">
            <mxPoint as="offset" />
          </mxGeometry>
        </mxCell>
        <mxCell id="sA4y40qbsDlOomALAGvJ-49" style="edgeStyle=orthogonalEdgeStyle;rounded=0;orthogonalLoop=1;jettySize=auto;html=1;entryX=0.5;entryY=1;entryDx=0;entryDy=0;" edge="1" parent="1" source="sA4y40qbsDlOomALAGvJ-40" target="sA4y40qbsDlOomALAGvJ-45">
          <mxGeometry relative="1" as="geometry" />
        </mxCell>
        <mxCell id="sA4y40qbsDlOomALAGvJ-40" value="resultado = n1 * n2" style="rounded=0;whiteSpace=wrap;html=1;" vertex="1" parent="1">
          <mxGeometry x="390" y="-89" width="120" height="60" as="geometry" />
        </mxCell>
        <mxCell id="sA4y40qbsDlOomALAGvJ-44" style="edgeStyle=orthogonalEdgeStyle;rounded=0;orthogonalLoop=1;jettySize=auto;html=1;exitX=0;exitY=0;exitDx=42.5;exitDy=0;exitPerimeter=0;entryX=0;entryY=0.75;entryDx=0;entryDy=0;" edge="1" parent="1" source="sA4y40qbsDlOomALAGvJ-41" target="sA4y40qbsDlOomALAGvJ-6">
          <mxGeometry relative="1" as="geometry">
            <mxPoint x="52.94117647058829" y="-709" as="targetPoint" />
          </mxGeometry>
        </mxCell>
        <mxCell id="sA4y40qbsDlOomALAGvJ-41" value="&quot;Input inválido. Digite novamente&quot;" style="shape=display;whiteSpace=wrap;html=1;" vertex="1" parent="1">
          <mxGeometry x="10" y="-99" width="100" height="80" as="geometry" />
        </mxCell>
        <mxCell id="sA4y40qbsDlOomALAGvJ-51" value="" style="edgeStyle=orthogonalEdgeStyle;rounded=0;orthogonalLoop=1;jettySize=auto;html=1;" edge="1" parent="1" source="sA4y40qbsDlOomALAGvJ-45" target="sA4y40qbsDlOomALAGvJ-50">
          <mxGeometry relative="1" as="geometry" />
        </mxCell>
        <mxCell id="sA4y40qbsDlOomALAGvJ-45" value="" style="ellipse;whiteSpace=wrap;html=1;aspect=fixed;" vertex="1" parent="1">
          <mxGeometry x="610" y="-309" width="40" height="40" as="geometry" />
        </mxCell>
        <mxCell id="sA4y40qbsDlOomALAGvJ-53" value="" style="edgeStyle=orthogonalEdgeStyle;rounded=0;orthogonalLoop=1;jettySize=auto;html=1;" edge="1" parent="1" source="sA4y40qbsDlOomALAGvJ-50" target="sA4y40qbsDlOomALAGvJ-52">
          <mxGeometry relative="1" as="geometry" />
        </mxCell>
        <mxCell id="sA4y40qbsDlOomALAGvJ-50" value="resultado" style="shape=display;whiteSpace=wrap;html=1;" vertex="1" parent="1">
          <mxGeometry x="710" y="-309" width="80" height="40" as="geometry" />
        </mxCell>
        <mxCell id="sA4y40qbsDlOomALAGvJ-52" value="Fim" style="rounded=1;whiteSpace=wrap;html=1;fontSize=12;glass=0;strokeWidth=1;shadow=0;" vertex="1" parent="1">
          <mxGeometry x="720" y="-210" width="60" height="40" as="geometry" />
        </mxCell>
      </root>
    </mxGraphModel>
  </diagram>
</mxfile>
